<?xml version="1.0" encoding="utf-8"?>
<!-- Generator: Adobe Illustrator 16.0.0, SVG Export Plug-In . SVG Version: 6.00 Build 0)  -->
<!DOCTYPE svg PUBLIC "-//W3C//DTD SVG 1.1//EN" "http://www.w3.org/Graphics/SVG/1.1/DTD/svg11.dtd">
<svg version="1.1" id="Calque_1" xmlns="http://www.w3.org/2000/svg" xmlns:xlink="http://www.w3.org/1999/xlink" x="0px" y="0px"
	 width="500px" height="500px" viewBox="0 0 500 500" enable-background="new 0 0 500 500" xml:space="preserve">
<path fill-rule="evenodd" clip-rule="evenodd" fill="#6FB0E1" d="M310.04,241.041c26.717,4.905,52.535,12.102,73.921,30.041
	c24.854,20.85,21.125,55.623,1.786,74.206c-23.308,22.397-47.683,43.476-74.429,61.714c-20.944,14.282-42.528,27.471-66.415,36.268
	c-46.855,17.257-93.061,16.793-138.346-5.793c-4.458-2.223-5.985-4.87-6.025-9.963c-0.187-23.879,3.531-46.97,11.46-69.527
	c5.298-15.074,14.978-26.664,26.118-37.65c13.482-13.298,27.059-26.544,39.417-40.942c0.276-0.321,0.906-0.339,1.373-0.498
	c14.115,14.668,30.193,26.485,50.106,31.724c12.898,3.393,25.783,2.082,37.498-4.94c16.053-9.624,26.576-23.993,34.123-40.793
	c0.146-0.555,0.293-1.11,0.439-1.665c0.826-0.563,1.577-1.176,1.525-2.317c0.43-1,0.86-2,1.29-3
	c1.011-0.318,1.055-1.101,0.939-1.958C306.683,251.02,309.4,246.394,310.04,241.041z M276.859,335.497
	c-5.161-0.151-9.591,1.465-12.561,5.789c-0.904,1.316-3.517,2.92-1.166,4.896c2.14,1.798,3.762,1.163,5.47-1.401
	c2.834-4.256,8.819-5.092,12.864-2.429c3.667,2.414,4.745,7.416,2.639,12.038c-1.483,3.256-4.118,5.609-6.398,8.23
	c-2.493,2.864-4.203,5.95-3.889,9.897c0.14,1.752-0.477,3.742,2.667,3.433c2.444-0.241,3.574-0.627,3.157-3.527
	c-0.454-3.168,1.578-5.645,3.566-7.939c1.849-2.135,3.919-4.113,5.522-6.418c3.425-4.922,3.762-10.249,0.977-15.563
	C287.025,337.385,282.374,335.568,276.859,335.497z M282.04,385.952c-0.322-2.186-1.318-4.007-3.891-4.229
	c-2.463-0.214-4.263,0.922-4.527,3.509c-0.279,2.738,1.132,4.534,3.896,4.714C280.033,390.108,281.395,388.487,282.04,385.952z"/>
<path fill-rule="evenodd" clip-rule="evenodd" fill="#2F4051" d="M180.984,255.298c-18.94-14.186-26.708-34.614-30.797-56.706
	c-5.036-27.202-4.635-54.498,0.739-81.685c0.98-4.959,2.925-9.376,5.878-13.513c10.616-14.875,23.2-27.734,37.909-38.615
	c25.178-18.626,51.224-21.014,78.981-5.742c19.377,10.662,36.146,24.053,49.102,42.09c2.118,2.95,3.244,5.867,3.309,9.597
	c0.273,15.814-0.447,31.594-1.114,47.38c-0.035,0.838-0.008,1.668-0.894,2.135c-2.436-1.022-1.871-3.289-2.086-5.18
	c-1.222-10.746-2.146-21.532-3.67-32.234c-1.028-7.223-4.919-8.926-11.337-5.473c-4.589,2.469-8.483,5.907-11.816,9.882
	c-10.288,12.267-23.402,20.627-37.615,27.496c-1.493,0.721-3.063,1.132-4.8,1.156c-12.538,0.174-23.177,5.138-32.753,12.939
	c-2.302,1.875-3.176,3.849-3.07,6.786c0.418,11.658,0.408,23.325-0.982,34.928c-0.62,5.178-0.922,10.534-4.328,15.972
	c-1.807-8.114-3.408-15.085-7.782-20.997c-4.098-5.538-9.353-9.88-16.437-8.1c-7.107,1.786-11.221,7.358-12.547,14.736
	c-1.91,10.628,1.958,20.037,6.497,29.149C183.848,246.28,183.701,250.703,180.984,255.298z"/>
<path fill-rule="evenodd" clip-rule="evenodd" fill="#FEE7BE" d="M180.984,255.298c2.717-4.595,2.864-9.018,0.384-13.997
	c-4.538-9.112-8.406-18.521-6.497-29.149c1.326-7.378,5.439-12.95,12.547-14.736c7.084-1.78,12.339,2.562,16.437,8.1
	c4.374,5.911,5.976,12.883,7.782,20.997c3.406-5.438,3.708-10.793,4.328-15.972c1.39-11.603,1.401-23.27,0.982-34.928
	c-0.105-2.938,0.769-4.911,3.07-6.786c9.576-7.802,20.215-12.765,32.753-12.939c1.736-0.024,3.307-0.435,4.8-1.156
	c14.213-6.869,27.327-15.229,37.615-27.496c3.333-3.975,7.228-7.413,11.816-9.882c6.418-3.453,10.309-1.75,11.337,5.473
	c1.523,10.702,2.448,21.488,3.67,32.234c0.215,1.891-0.35,4.158,2.086,5.18c-1.473,17.96-3.577,35.828-7.411,53.468
	c-1.579,7.267-3.455,14.438-5.882,21.456c-0.679,1.962-0.811,3.879-0.764,5.876c-0.639,5.353-3.356,9.979-5.217,14.904
	c-0.313,0.653-0.626,1.306-0.94,1.958c-0.43,1-0.86,2-1.287,3.001c-1.255,0.278-1.665,1.117-1.528,2.316
	c-0.146,0.555-0.293,1.11-0.438,1.666c-1.615,0.3-2.653,1.402-3.385,2.725c-2.537,4.59-6.255,8.172-10.046,11.637
	c-11.944,10.915-26.031,14.465-41.874,12.013c-18.931-2.93-34.336-13.012-49.489-23.813c-4.787-3.412-8.085-8.859-14.208-10.423
	C181.413,256.449,181.198,255.873,180.984,255.298z"/>
<path fill-rule="evenodd" clip-rule="evenodd" fill="#DDCDA5" d="M181.627,257.024c6.123,1.563,9.421,7.011,14.208,10.423
	c15.153,10.802,30.558,20.884,49.489,23.813c15.843,2.452,29.93-1.098,41.874-12.013c3.791-3.465,7.509-7.047,10.046-11.637
	c0.731-1.322,1.77-2.425,3.385-2.725c-7.549,16.799-18.072,31.168-34.125,40.792c-11.715,7.022-24.599,8.333-37.498,4.94
	c-19.913-5.238-35.991-17.056-50.106-31.724C181.316,271.793,183.964,264.72,181.627,257.024z"/>
<path fill-rule="evenodd" clip-rule="evenodd" fill="#1C0E00" d="M276.859,335.497c5.515,0.071,10.166,1.888,12.849,7.006
	c2.785,5.313,2.448,10.641-0.977,15.563c-1.604,2.305-3.674,4.283-5.522,6.418c-1.988,2.295-4.021,4.771-3.566,7.939
	c0.417,2.9-0.713,3.286-3.157,3.527c-3.144,0.31-2.527-1.681-2.667-3.433c-0.314-3.947,1.396-7.033,3.889-9.897
	c2.28-2.621,4.915-4.975,6.398-8.23c2.106-4.622,1.028-9.624-2.639-12.038c-4.045-2.663-10.03-1.827-12.864,2.429
	c-1.708,2.564-3.33,3.199-5.47,1.401c-2.351-1.976,0.262-3.579,1.166-4.896C267.269,336.962,271.698,335.346,276.859,335.497z"/>
<path fill-rule="evenodd" clip-rule="evenodd" fill="#251401" d="M282.04,385.952c-0.646,2.535-2.007,4.156-4.521,3.993
	c-2.765-0.18-4.176-1.976-3.896-4.714c0.265-2.587,2.064-3.723,4.527-3.509C280.722,381.945,281.718,383.767,282.04,385.952z"/>
<path fill-rule="evenodd" clip-rule="evenodd" fill="#DDCDA5" d="M301.066,263.221c-0.137-1.199,0.273-2.038,1.528-2.316
	C302.644,262.045,301.893,262.657,301.066,263.221z"/>
<path fill-rule="evenodd" clip-rule="evenodd" fill="#DDCDA5" d="M303.882,257.903c0.314-0.652,0.628-1.305,0.94-1.958
	C304.937,256.803,304.893,257.585,303.882,257.903z"/>
</svg>
