<?xml version="1.0" encoding="utf-8"?>
<!-- Generator: Adobe Illustrator 16.0.0, SVG Export Plug-In . SVG Version: 6.00 Build 0)  -->
<!DOCTYPE svg PUBLIC "-//W3C//DTD SVG 1.1//EN" "http://www.w3.org/Graphics/SVG/1.1/DTD/svg11.dtd">
<svg version="1.1" id="Calque_1" xmlns="http://www.w3.org/2000/svg" xmlns:xlink="http://www.w3.org/1999/xlink" x="0px" y="0px"
	 width="261.861px" height="210.332px" viewBox="0 0 261.861 210.332" enable-background="new 0 0 261.861 210.332"
	 xml:space="preserve">
<rect fill="#EEEEEF" width="2.619" height="210.332"/>
<rect y="8.542" fill="#6FB1E5" width="261.861" height="91.65"/>
<rect y="110.334" fill="#46B06F" width="23.567" height="91.65"/>
<g>
	<path fill="#FFFFFF" d="M96.003,55.21h-2.377V39.445l-4.77,1.752v-2.148l6.777-2.544h0.37V55.21z"/>
	<path fill="#FFFFFF" d="M112.217,36.581v2.007h-0.435c-1.841,0.034-3.307,0.58-4.398,1.637c-1.091,1.057-1.722,2.544-1.893,4.462
		c0.98-1.125,2.318-1.688,4.016-1.688c1.619,0,2.913,0.571,3.88,1.713c0.967,1.143,1.452,2.617,1.452,4.424
		c0,1.917-0.523,3.453-1.567,4.604c-1.044,1.15-2.444,1.726-4.2,1.726c-1.782,0-3.227-0.684-4.334-2.052
		c-1.108-1.368-1.662-3.131-1.662-5.287V47.22c0-3.427,0.731-6.047,2.192-7.857c1.462-1.812,3.638-2.738,6.528-2.781H112.217z
		 M109.109,44.968c-0.809,0-1.556,0.243-2.238,0.729c-0.682,0.486-1.154,1.095-1.418,1.829v0.87c0,1.535,0.345,2.77,1.035,3.708
		c0.691,0.938,1.551,1.407,2.583,1.407c1.066,0,1.903-0.393,2.513-1.177c0.609-0.785,0.914-1.812,0.914-3.082
		c0-1.278-0.309-2.312-0.927-3.1S110.132,44.968,109.109,44.968z"/>
	<path fill="#FFFFFF" d="M118.724,45.876l0.946-9.283h9.539v2.187h-7.531l-0.563,5.076c0.912-0.537,1.948-0.806,3.107-0.806
		c1.696,0,3.042,0.561,4.04,1.681c0.997,1.122,1.496,2.636,1.496,4.546c0,1.917-0.518,3.428-1.553,4.532
		c-1.036,1.104-2.483,1.656-4.341,1.656c-1.645,0-2.988-0.456-4.027-1.368c-1.041-0.912-1.633-2.174-1.777-3.785h2.238
		c0.145,1.065,0.524,1.869,1.138,2.41c0.614,0.542,1.423,0.812,2.429,0.812c1.1,0,1.963-0.375,2.589-1.125
		c0.626-0.75,0.94-1.786,0.94-3.107c0-1.245-0.339-2.244-1.017-2.999c-0.677-0.754-1.579-1.131-2.704-1.131
		c-1.032,0-1.841,0.226-2.429,0.677l-0.626,0.512L118.724,45.876z"/>
	<path fill="#FFFFFF" d="M142.328,48.958h2.582v1.931h-2.582v4.321h-2.378v-4.321h-8.478v-1.395l8.337-12.901h2.519V48.958z
		 M134.157,48.958h5.793v-9.129l-0.281,0.511L134.157,48.958z"/>
	<path fill="#FFFFFF" d="M147.212,58.918l-1.341-0.921c0.801-1.117,1.219-2.268,1.253-3.452v-2.135h2.314v1.854
		c0,0.861-0.212,1.722-0.634,2.583C148.383,57.708,147.852,58.398,147.212,58.918z"/>
	<path fill="#FFFFFF" d="M164.205,37.923l-7.71,17.287h-2.48l7.685-16.674h-10.075v-1.943h12.581V37.923z"/>
	<path fill="#FFFFFF" d="M176.173,36.581v2.007h-0.434c-1.841,0.034-3.308,0.58-4.399,1.637c-1.091,1.057-1.722,2.544-1.892,4.462
		c0.98-1.125,2.317-1.688,4.014-1.688c1.621,0,2.914,0.571,3.881,1.713c0.969,1.143,1.452,2.617,1.452,4.424
		c0,1.917-0.522,3.453-1.567,4.604c-1.043,1.15-2.443,1.726-4.199,1.726c-1.782,0-3.228-0.684-4.334-2.052
		c-1.108-1.368-1.663-3.131-1.663-5.287V47.22c0-3.427,0.731-6.047,2.192-7.857c1.463-1.812,3.639-2.738,6.528-2.781H176.173z
		 M173.066,44.968c-0.81,0-1.556,0.243-2.238,0.729c-0.682,0.486-1.154,1.095-1.418,1.829v0.87c0,1.535,0.345,2.77,1.035,3.708
		s1.551,1.407,2.583,1.407c1.065,0,1.902-0.393,2.512-1.177c0.61-0.785,0.915-1.812,0.915-3.082c0-1.278-0.31-2.312-0.927-3.1
		C174.91,45.363,174.09,44.968,173.066,44.968z"/>
	<path fill="#FFFFFF" d="M197.386,48.293h-4.909c0.033,1.658,0.434,2.933,1.201,3.826c0.768,0.893,1.854,1.339,3.261,1.339
		c0.988,0,1.917-0.145,2.786-0.434l0.257,2.056c-1.023,0.257-2.047,0.386-3.069,0.386c-2.114,0-3.778-0.625-4.993-1.873
		c-1.214-1.249-1.848-3.015-1.898-5.3h-2.275v-1.585h2.275v-1.752h-2.275v-1.598h2.275c0.086-2.233,0.735-3.961,1.95-5.185
		s2.858-1.835,4.928-1.835c0.904,0,1.932,0.131,3.083,0.394l-0.257,2.061c-0.929-0.298-1.861-0.447-2.8-0.447
		c-1.397,0-2.474,0.434-3.229,1.301c-0.754,0.868-1.156,2.104-1.207,3.711h4.896v1.598h-4.909v1.752h4.909V48.293z"/>
</g>
<g>
	<path fill="#464749" d="M104.458,157.97h-2.378v-15.766l-4.77,1.754v-2.149l6.777-2.546h0.371V157.97z"/>
	<path fill="#464749" d="M120.672,139.342v2.006h-0.436c-1.841,0.035-3.308,0.58-4.398,1.637c-1.092,1.059-1.723,2.544-1.893,4.462
		c0.98-1.123,2.318-1.687,4.014-1.687c1.62,0,2.914,0.571,3.881,1.714c0.967,1.142,1.451,2.616,1.451,4.422
		c0,1.92-0.521,3.453-1.565,4.604c-1.045,1.15-2.445,1.727-4.201,1.727c-1.781,0-3.226-0.685-4.334-2.051
		c-1.108-1.369-1.663-3.131-1.663-5.288v-0.909c0-3.426,0.731-6.045,2.193-7.856c1.461-1.81,3.637-2.737,6.527-2.779H120.672z
		 M117.564,147.729c-0.811,0-1.556,0.241-2.237,0.728c-0.684,0.485-1.156,1.097-1.42,1.829v0.869c0,1.533,0.346,2.771,1.036,3.709
		c0.689,0.937,1.551,1.404,2.583,1.404c1.065,0,1.903-0.392,2.512-1.176s0.914-1.812,0.914-3.08c0-1.279-0.309-2.313-0.927-3.102
		C119.407,148.122,118.587,147.729,117.564,147.729z"/>
	<path fill="#464749" d="M137.768,150.03c0,2.771-0.474,4.828-1.42,6.176c-0.945,1.346-2.425,2.02-4.438,2.02
		c-1.985,0-3.457-0.657-4.41-1.976c-0.956-1.317-1.45-3.283-1.484-5.901v-3.156c0-2.737,0.474-4.77,1.419-6.101
		c0.946-1.33,2.43-1.995,4.45-1.995c2.003,0,3.478,0.643,4.424,1.926c0.946,1.284,1.432,3.262,1.458,5.939V150.03z M135.402,146.795
		c0-2.003-0.282-3.463-0.845-4.379c-0.563-0.917-1.453-1.375-2.672-1.375c-1.21,0-2.092,0.456-2.647,1.369
		c-0.553,0.911-0.839,2.313-0.857,4.206v3.786c0,2.01,0.292,3.495,0.876,4.456c0.583,0.956,1.468,1.438,2.652,1.438
		c1.168,0,2.036-0.452,2.603-1.356c0.567-0.903,0.863-2.326,0.89-4.271V146.795z"/>
	<path fill="#464749" d="M140.964,161.679l-1.343-0.921c0.801-1.117,1.219-2.268,1.253-3.453v-2.135h2.314v1.854
		c0,0.861-0.211,1.723-0.633,2.584C142.133,160.469,141.603,161.159,140.964,161.679z"/>
	<path fill="#464749" d="M147.024,148.636l0.946-9.281h9.537v2.187h-7.531l-0.562,5.075c0.912-0.539,1.947-0.805,3.108-0.805
		c1.695,0,3.043,0.56,4.039,1.681c0.998,1.121,1.497,2.636,1.497,4.545c0,1.918-0.518,3.431-1.554,4.533
		c-1.036,1.104-2.484,1.655-4.341,1.655c-1.646,0-2.989-0.455-4.028-1.368c-1.04-0.911-1.633-2.172-1.777-3.784h2.238
		c0.145,1.065,0.523,1.87,1.137,2.411c0.614,0.541,1.424,0.812,2.431,0.812c1.1,0,1.963-0.377,2.588-1.126
		c0.627-0.749,0.94-1.785,0.94-3.107c0-1.244-0.339-2.245-1.017-2.998c-0.678-0.755-1.578-1.132-2.705-1.132
		c-1.03,0-1.841,0.228-2.429,0.679l-0.627,0.51L147.024,148.636z"/>
	<path fill="#464749" d="M161.728,148.636l0.947-9.281h9.537v2.187h-7.531l-0.562,5.075c0.912-0.539,1.947-0.805,3.107-0.805
		c1.695,0,3.043,0.56,4.04,1.681s1.497,2.636,1.497,4.545c0,1.918-0.519,3.431-1.554,4.533c-1.036,1.104-2.484,1.655-4.342,1.655
		c-1.645,0-2.988-0.455-4.028-1.368c-1.039-0.911-1.632-2.172-1.776-3.784h2.238c0.145,1.065,0.522,1.87,1.137,2.411
		c0.613,0.541,1.423,0.812,2.43,0.812c1.1,0,1.963-0.377,2.589-1.126c0.627-0.749,0.939-1.785,0.939-3.107
		c0-1.244-0.339-2.245-1.016-2.998c-0.678-0.755-1.579-1.132-2.705-1.132c-1.031,0-1.841,0.228-2.429,0.679l-0.627,0.51
		L161.728,148.636z"/>
	<path fill="#464749" d="M191.137,151.054h-4.91c0.034,1.657,0.436,2.933,1.202,3.825c0.767,0.895,1.854,1.34,3.26,1.34
		c0.989,0,1.919-0.146,2.788-0.435l0.255,2.055c-1.022,0.258-2.045,0.387-3.068,0.387c-2.113,0-3.778-0.624-4.993-1.872
		c-1.215-1.25-1.847-3.016-1.897-5.3h-2.276v-1.588h2.276v-1.749h-2.276v-1.6h2.276c0.085-2.232,0.734-3.961,1.948-5.184
		c1.215-1.224,2.858-1.837,4.931-1.837c0.903,0,1.93,0.133,3.08,0.395l-0.255,2.062c-0.93-0.299-1.862-0.447-2.801-0.447
		c-1.397,0-2.475,0.433-3.229,1.301c-0.754,0.867-1.156,2.104-1.208,3.711h4.897v1.6h-4.91v1.749h4.91V151.054z"/>
</g>
<g>
	<path fill="#EEEEEF" d="M95.799,73.369c-0.068,1.329-0.441,2.348-1.12,3.054c-0.679,0.708-1.637,1.061-2.875,1.061
		c-1.244,0-2.232-0.472-2.964-1.418c-0.733-0.946-1.099-2.228-1.099-3.847v-2.25c0-1.612,0.376-2.888,1.129-3.825
		c0.752-0.937,1.778-1.405,3.079-1.405c1.198,0,2.126,0.358,2.782,1.074c0.656,0.714,1.012,1.74,1.069,3.075h-1.576
		c-0.068-1.011-0.281-1.731-0.64-2.163c-0.357-0.432-0.902-0.647-1.636-0.647c-0.846,0-1.496,0.33-1.951,0.991
		c-0.455,0.663-0.682,1.631-0.682,2.91v2.274c0,1.255,0.211,2.218,0.635,2.889s1.041,1.005,1.853,1.005
		c0.813,0,1.397-0.202,1.755-0.605c0.357-0.403,0.579-1.127,0.665-2.172H95.799z"/>
	<path fill="#EEEEEF" d="M99.47,72.458v4.856h-1.559V64.909h3.954c1.153,0,2.059,0.345,2.718,1.036
		c0.659,0.689,0.988,1.608,0.988,2.755c0,1.193-0.313,2.112-0.941,2.756c-0.628,0.645-1.512,0.979-2.654,1.001H99.47z M99.47,71.12
		h2.395c0.692,0,1.224-0.207,1.593-0.622c0.369-0.417,0.553-1.011,0.553-1.784c0-0.746-0.19-1.343-0.57-1.793
		c-0.381-0.449-0.903-0.674-1.568-0.674H99.47V71.12z"/>
	<path fill="#EEEEEF" d="M114.832,66.247h-3.263v11.066h-1.559V66.247h-3.254v-1.338h8.076V66.247z"/>
	<path fill="#EEEEEF" d="M120.318,77.313V64.909h2.956c1.449,0,2.574,0.453,3.374,1.359c0.801,0.905,1.202,2.178,1.202,3.82v2.08
		c0,1.641-0.406,2.908-1.219,3.803c-0.812,0.895-1.991,1.342-3.535,1.342H120.318z M121.877,66.247v9.729h1.252
		c1.096,0,1.897-0.313,2.403-0.942c0.505-0.627,0.763-1.559,0.775-2.792v-2.199c0-1.308-0.251-2.268-0.754-2.878
		c-0.502-0.611-1.262-0.917-2.279-0.917H121.877z"/>
	<path fill="#EEEEEF" d="M136.223,71.58h-4.387v4.396h5.111v1.338h-6.67V64.909h6.585v1.338h-5.026v3.995h4.387V71.58z"/>
	<path fill="#EEEEEF" d="M140.501,72.458v4.856h-1.56V64.909h3.953c1.152,0,2.06,0.345,2.717,1.036
		c0.661,0.689,0.989,1.608,0.989,2.755c0,1.193-0.313,2.112-0.941,2.756c-0.628,0.645-1.513,0.979-2.654,1.001H140.501z
		 M140.501,71.12h2.394c0.693,0,1.224-0.207,1.594-0.622c0.369-0.417,0.554-1.011,0.554-1.784c0-0.746-0.19-1.343-0.57-1.793
		c-0.381-0.449-0.904-0.674-1.569-0.674h-2.401V71.12z"/>
	<path fill="#EEEEEF" d="M156.68,72.202c0,1.693-0.361,2.997-1.082,3.91c-0.722,0.915-1.747,1.372-3.075,1.372
		c-1.279,0-2.289-0.445-3.03-1.333c-0.739-0.889-1.125-2.146-1.153-3.771v-2.333c0-1.659,0.365-2.958,1.1-3.897
		c0.73-0.941,1.754-1.411,3.067-1.411c1.304,0,2.322,0.451,3.052,1.351c0.73,0.9,1.104,2.185,1.122,3.855V72.202z M155.12,70.029
		c0-1.312-0.215-2.286-0.644-2.926c-0.429-0.639-1.085-0.958-1.971-0.958c-0.858,0-1.509,0.324-1.948,0.972
		c-0.44,0.647-0.663,1.602-0.669,2.863v2.224c0,1.266,0.22,2.232,0.661,2.896c0.439,0.666,1.098,0.997,1.973,0.997
		c0.874,0,1.521-0.306,1.941-0.919c0.42-0.615,0.639-1.554,0.656-2.821V70.029z"/>
	<path fill="#EEEEEF" d="M166.108,66.247h-3.262v11.066h-1.559V66.247h-3.256v-1.338h8.076V66.247z"/>
	<path fill="#EEEEEF" d="M173.155,72.458v4.856h-1.559V64.909h3.953c1.152,0,2.06,0.345,2.717,1.036
		c0.66,0.689,0.989,1.608,0.989,2.755c0,1.193-0.314,2.112-0.941,2.756c-0.628,0.645-1.514,0.979-2.654,1.001H173.155z
		 M173.155,71.12h2.395c0.692,0,1.224-0.207,1.594-0.622c0.369-0.417,0.553-1.011,0.553-1.784c0-0.746-0.19-1.343-0.569-1.793
		c-0.381-0.449-0.904-0.674-1.57-0.674h-2.401V71.12z"/>
	<path fill="#EEEEEF" d="M185.875,74.067h-4.19l-0.965,3.246h-1.601l3.995-12.404h1.338l4.003,12.404h-1.601L185.875,74.067z
		 M182.093,72.73h3.382l-1.695-5.641L182.093,72.73z"/>
	<path fill="#EEEEEF" d="M193.892,72.295h-2.181v5.018h-1.566V64.909h3.476c1.215,0,2.136,0.317,2.76,0.949
		c0.625,0.634,0.938,1.562,0.938,2.782c0,0.767-0.169,1.436-0.508,2.007c-0.338,0.57-0.815,1-1.436,1.291l2.402,5.272v0.103h-1.679
		L193.892,72.295z M191.711,70.958h1.892c0.652,0,1.175-0.21,1.563-0.632c0.389-0.42,0.584-0.983,0.584-1.689
		c0-1.593-0.723-2.389-2.166-2.389h-1.873V70.958z"/>
	<path fill="#EEEEEF" d="M205.973,66.247h-3.263v11.066h-1.56V66.247h-3.254v-1.338h8.076V66.247z"/>
</g>
<g>
	<path fill="#464749" d="M75.945,176.704c-0.068,1.329-0.442,2.349-1.121,3.056c-0.678,0.705-1.637,1.06-2.875,1.06
		c-1.243,0-2.231-0.473-2.964-1.419c-0.733-0.944-1.099-2.229-1.099-3.847v-2.248c0-1.612,0.376-2.89,1.129-3.826
		c0.752-0.936,1.779-1.406,3.079-1.406c1.199,0,2.126,0.36,2.782,1.076c0.656,0.713,1.012,1.738,1.069,3.074h-1.576
		c-0.068-1.011-0.281-1.733-0.639-2.163c-0.357-0.434-0.903-0.647-1.636-0.647c-0.846,0-1.496,0.329-1.95,0.99
		c-0.455,0.664-0.682,1.633-0.682,2.91v2.275c0,1.255,0.211,2.218,0.634,2.888s1.042,1.007,1.853,1.007
		c0.813,0,1.397-0.204,1.755-0.607c0.358-0.401,0.58-1.128,0.665-2.172H75.945z"/>
	<path fill="#464749" d="M79.616,175.793v4.855h-1.559v-12.404h3.954c1.152,0,2.059,0.346,2.717,1.036
		c0.66,0.69,0.99,1.607,0.99,2.756c0,1.192-0.315,2.111-0.942,2.754c-0.627,0.647-1.513,0.98-2.653,1.003H79.616z M79.616,174.455
		h2.395c0.693,0,1.224-0.207,1.592-0.621c0.371-0.416,0.553-1.012,0.553-1.785c0-0.745-0.188-1.342-0.568-1.791
		c-0.381-0.451-0.904-0.676-1.569-0.676h-2.402V174.455z"/>
	<path fill="#464749" d="M94.976,169.582h-3.262v11.066h-1.559v-11.066h-3.254v-1.338h8.075V169.582z"/>
	<path fill="#464749" d="M100.465,180.648v-12.404h2.955c1.449,0,2.573,0.453,3.374,1.36c0.8,0.905,1.202,2.178,1.202,3.819v2.08
		c0,1.642-0.406,2.908-1.219,3.803c-0.812,0.896-1.991,1.342-3.535,1.342H100.465z M102.023,169.582v9.729h1.251
		c1.096,0,1.897-0.313,2.404-0.942c0.505-0.626,0.763-1.558,0.774-2.791v-2.199c0-1.309-0.252-2.268-0.754-2.879
		c-0.502-0.609-1.262-0.917-2.279-0.917H102.023z"/>
	<path fill="#464749" d="M116.37,174.915h-4.387v4.396h5.111v1.338h-6.67v-12.404h6.584v1.338h-5.026v3.996h4.387V174.915z"/>
	<path fill="#464749" d="M120.646,175.793v4.855h-1.559v-12.404h3.953c1.154,0,2.059,0.346,2.718,1.036
		c0.659,0.69,0.989,1.607,0.989,2.756c0,1.192-0.315,2.111-0.942,2.754c-0.627,0.647-1.512,0.98-2.654,1.003H120.646z
		 M120.646,174.455h2.394c0.693,0,1.224-0.207,1.593-0.621c0.37-0.416,0.554-1.012,0.554-1.785c0-0.745-0.189-1.342-0.57-1.791
		c-0.381-0.451-0.903-0.676-1.568-0.676h-2.402V174.455z"/>
	<path fill="#464749" d="M136.825,175.537c0,1.693-0.361,2.998-1.083,3.911s-1.745,1.371-3.074,1.371
		c-1.279,0-2.288-0.443-3.03-1.334c-0.741-0.888-1.126-2.145-1.154-3.77v-2.334c0-1.659,0.366-2.958,1.1-3.897
		c0.732-0.94,1.755-1.411,3.064-1.411c1.307,0,2.326,0.452,3.057,1.353c0.729,0.898,1.103,2.184,1.12,3.854V175.537z
		 M135.266,173.365c0-1.313-0.214-2.288-0.643-2.927c-0.43-0.639-1.088-0.959-1.975-0.959c-0.855,0-1.505,0.325-1.945,0.972
		c-0.441,0.646-0.663,1.602-0.669,2.862v2.224c0,1.267,0.22,2.232,0.66,2.896c0.44,0.666,1.099,0.997,1.974,0.997
		c0.874,0,1.521-0.307,1.942-0.918c0.42-0.615,0.638-1.554,0.655-2.82V173.365z"/>
	<path fill="#464749" d="M146.256,169.582h-3.263v11.066h-1.56v-11.066h-3.254v-1.338h8.076V169.582z"/>
	<path fill="#464749" d="M148.293,181.713h-1.278l4.353-13.469h1.271L148.293,181.713z"/>
	<path fill="#464749" d="M162.331,176.704c-0.067,1.329-0.44,2.349-1.12,3.056c-0.679,0.705-1.637,1.06-2.875,1.06
		c-1.244,0-2.231-0.473-2.964-1.419c-0.733-0.944-1.1-2.229-1.1-3.847v-2.248c0-1.612,0.376-2.89,1.129-3.826
		c0.753-0.936,1.779-1.406,3.079-1.406c1.198,0,2.126,0.36,2.781,1.076c0.656,0.713,1.014,1.738,1.069,3.074h-1.575
		c-0.069-1.011-0.28-1.733-0.639-2.163c-0.358-0.434-0.904-0.647-1.637-0.647c-0.846,0-1.496,0.329-1.951,0.99
		c-0.454,0.664-0.68,1.633-0.68,2.91v2.275c0,1.255,0.21,2.218,0.634,2.888c0.423,0.67,1.04,1.007,1.853,1.007
		s1.398-0.204,1.756-0.607c0.356-0.401,0.579-1.128,0.664-2.172H162.331z"/>
	<path fill="#464749" d="M172.513,175.537c0,1.693-0.362,2.998-1.083,3.911s-1.745,1.371-3.074,1.371
		c-1.278,0-2.288-0.443-3.03-1.334c-0.74-0.888-1.125-2.145-1.153-3.77v-2.334c0-1.659,0.365-2.958,1.1-3.897
		c0.732-0.94,1.755-1.411,3.066-1.411c1.307,0,2.324,0.452,3.054,1.353c0.73,0.898,1.104,2.184,1.121,3.854V175.537z
		 M170.954,173.365c0-1.313-0.215-2.288-0.645-2.927c-0.429-0.639-1.086-0.959-1.972-0.959c-0.857,0-1.506,0.325-1.947,0.972
		c-0.439,0.646-0.662,1.602-0.669,2.862v2.224c0,1.267,0.222,2.232,0.661,2.896c0.439,0.666,1.098,0.997,1.973,0.997
		s1.521-0.307,1.941-0.918c0.421-0.615,0.639-1.554,0.657-2.82V173.365z"/>
	<path fill="#464749" d="M176.935,168.244l3.237,10.122l3.237-10.122h2.011v12.404h-1.559v-4.83l0.145-4.839l-3.246,9.669h-1.192
		l-3.229-9.636l0.145,4.806v4.83h-1.559v-12.404H176.935z"/>
	<path fill="#464749" d="M190.113,168.244l3.238,10.122l3.236-10.122h2.012v12.404h-1.56v-4.83l0.145-4.839l-3.246,9.669h-1.191
		l-3.229-9.636l0.145,4.806v4.83h-1.56v-12.404H190.113z"/>
	<path fill="#464749" d="M208.677,168.244v8.818c-0.012,1.175-0.352,2.097-1.022,2.76c-0.67,0.664-1.604,0.997-2.803,0.997
		c-1.227,0-2.163-0.325-2.811-0.976c-0.647-0.649-0.978-1.577-0.989-2.781v-8.818h1.552v8.754c0,0.834,0.177,1.456,0.532,1.867
		c0.355,0.412,0.927,0.618,1.716,0.618c0.796,0,1.371-0.206,1.726-0.618c0.355-0.411,0.533-1.033,0.533-1.867v-8.754H208.677z"/>
	<path fill="#464749" d="M219.182,180.648h-1.566l-4.967-9.559v9.559h-1.566v-12.404h1.566l4.983,9.603v-9.603h1.55V180.648z"/>
</g>
</svg>
